<svg width="360" height="85" viewBox="0 0 360 85" fill="none" xmlns="http://www.w3.org/2000/svg">
<path d="M42.2554 0H42.0974C41.8605 0.078982 41.6235 0.157964 41.3866 0.236946C40.5968 0.473892 39.8859 0.710838 39.0961 0.947784C38.5432 1.10575 37.9114 1.18473 37.3585 1.18473C36.8846 1.18473 36.4107 1.10575 36.0158 1.10575C35.3839 1.10575 34.7521 1.26371 34.2782 1.65862C34.1202 1.7376 34.0412 1.89557 33.9623 1.97455C33.9623 2.05353 33.8833 2.05353 33.8833 2.13251C33.8043 2.2115 33.8043 2.36946 33.8833 2.44844C33.9623 2.52742 34.1202 2.60641 34.2782 2.52742C34.4362 2.44844 34.6731 2.36946 34.8311 2.29048C35.305 2.05353 35.7789 1.97455 36.2527 1.97455C36.8056 1.97455 37.3585 1.97455 37.8324 1.89557C38.4642 1.89557 39.0171 1.81659 39.649 1.7376C40.5178 1.65862 41.3866 1.50066 42.1764 1.26371C43.0452 1.02677 43.835 0.78982 44.6248 0.552874C45.0987 0.39491 45.5726 0.236946 46.0465 0.078982C44.8618 0.078982 43.5981 0 42.2554 0ZM75.8227 16.5072C75.6648 16.5072 75.5068 16.5072 75.3488 16.5072C74.559 16.5072 73.7692 16.4283 72.9004 16.4283C72.2685 16.4283 71.7157 16.2703 71.1628 16.0333C70.7679 15.8754 70.294 15.6384 69.8991 15.4805C69.3462 15.2435 68.7143 15.2435 68.0825 15.4015C67.9245 15.4805 67.7666 15.5595 67.6876 15.6384C67.6086 15.6384 67.6086 15.7174 67.5296 15.7174C67.4506 15.7964 67.3717 15.8754 67.4506 16.0333C67.5296 16.1913 67.6086 16.2703 67.7666 16.2703C68.0035 16.2703 68.1615 16.2703 68.3984 16.2703C68.8723 16.1913 69.4252 16.2703 69.8991 16.4283C70.373 16.5862 70.9258 16.7442 71.3997 16.9021C71.9526 17.0601 72.5845 17.2181 73.1373 17.376C74.0061 17.613 74.875 17.771 75.6648 17.8499C76.0597 17.9289 76.4546 17.9289 76.8495 17.9289C76.5336 17.534 76.1387 16.9811 75.8227 16.5072ZM84.2738 43.3611C83.7999 42.9662 83.247 42.7293 82.6152 42.7293C82.4572 42.7293 82.2993 42.7293 82.1413 42.8083C82.0623 42.8083 82.0623 42.8082 81.9833 42.8872C81.9044 42.9662 81.7464 43.0452 81.7464 43.1242C81.7464 43.2821 81.8254 43.3611 81.9833 43.4401C82.1413 43.5191 82.3782 43.5981 82.5362 43.5981C83.0101 43.6771 83.484 43.914 83.8789 44.2299C84.1158 44.3879 84.2738 44.5459 84.5108 44.7038C84.5108 44.3089 84.5107 43.914 84.5897 43.5981C84.4318 43.5191 84.3528 43.4401 84.2738 43.3611ZM80.5617 50.3115C80.0878 49.6007 79.6139 48.8109 79.219 48.0211C78.903 47.3892 78.7451 46.7573 78.5871 46.0465C78.5081 45.3357 78.5871 44.5459 78.903 43.914C79.14 43.4401 79.3769 42.9662 79.6929 42.4923C80.1667 41.7815 80.7986 41.3076 81.5884 41.0706C82.0623 40.9127 82.4572 40.8337 82.9311 40.6757C83.405 40.5968 83.8789 40.5968 84.3528 40.6757H84.4318C84.2738 35.305 83.0101 30.1711 80.9566 25.4322C80.1667 25.5902 79.2979 25.7481 78.4291 25.8271C77.5603 25.9061 76.6915 25.9061 75.8227 25.7481C74.0851 25.5112 72.3475 25.0373 70.7679 24.4054C69.9781 24.0895 69.3462 23.6946 68.6354 23.2207C67.9245 22.6678 67.2137 22.115 66.5818 21.4831C66.1079 21.0092 65.713 20.4563 65.3181 19.8245C65.0022 19.1136 64.8442 18.4818 64.9232 17.692C65.0022 17.1391 65.0022 16.6652 65.1602 16.1123C65.3971 15.3225 65.792 14.6117 66.5029 14.1378C66.8978 13.9008 67.2927 13.5849 67.6876 13.348C68.0825 13.111 68.5564 12.953 69.0303 12.8741C69.8991 12.7161 70.6889 12.7161 71.5577 12.7161C71.8736 12.7161 72.1106 12.7161 72.4265 12.7161C71.3997 11.6104 70.294 10.6626 69.1093 9.71479C68.7933 10.1097 68.4774 10.4256 68.1615 10.8205C67.5296 11.4524 66.8978 12.0053 66.1869 12.5581C64.7653 13.5849 63.1856 14.2957 61.527 14.9276C60.7372 15.2435 59.9473 15.3225 59.1575 15.4015C58.2887 15.4805 57.4199 15.5595 56.4721 15.4805C55.7613 15.4015 55.1294 15.3225 54.4186 15.0856C53.7078 14.8486 53.1549 14.3747 52.681 13.7429C52.3651 13.348 52.0491 12.8741 51.8122 12.4002C51.4173 11.6893 51.3383 10.8995 51.4963 10.0307C51.5753 9.55682 51.7332 9.08293 51.8122 8.68802C51.9702 8.21413 52.2071 7.81922 52.523 7.42431C53.0759 6.71347 53.6288 6.1606 54.3396 5.60772C55.1294 4.89688 55.9982 4.26503 56.946 3.71215C57.262 3.47521 57.6569 3.23826 57.9728 3.0803C56.6301 2.52742 55.2084 2.05353 53.7868 1.65862C53.7868 2.29048 53.5498 2.92233 53.2339 3.47521C53.2339 3.71215 53.0759 3.9491 52.9179 4.10706C52.76 4.42299 52.523 4.65994 52.2861 4.89688C51.7332 5.44976 51.0224 5.92365 50.3905 6.39754C49.5217 6.95042 48.6529 7.50329 47.7051 7.8982C46.9153 8.29311 46.0465 8.53006 45.2567 8.767C43.5191 9.16191 41.7815 9.24089 40.0439 9.24089C39.2541 9.24089 38.4642 9.08293 37.6744 8.84598C36.8056 8.60904 35.9368 8.29311 35.147 7.8982C34.5151 7.58227 33.9623 7.18736 33.4094 6.71347C32.8565 6.23958 32.4616 5.60772 32.3036 4.8179C32.1457 4.26503 32.0667 3.79114 31.9877 3.23826C31.9087 2.44844 32.0667 1.7376 32.4616 1.10575C29.6972 1.7376 27.0908 2.68539 24.5634 3.87012C25.0373 3.9491 25.5902 4.10706 26.0641 4.26503C26.7749 4.50197 27.4068 4.65994 28.1176 4.89688C28.8284 5.13383 29.5393 5.52874 30.1711 5.84467C31.1189 6.31856 32.0667 6.87143 32.9355 7.50329C33.7253 8.05616 34.4362 8.53006 35.147 9.16191C35.7789 9.71479 36.2527 10.3466 36.4897 11.1365C36.6477 11.5314 36.6477 11.9263 36.6477 12.3212V12.4002C36.4897 12.2422 36.3317 12.0053 36.0948 11.8473C35.6209 11.3734 35.068 10.9785 34.4362 10.5836C33.7253 10.1097 33.0145 9.71479 32.2247 9.39886C31.3559 9.00395 30.4081 8.68802 29.4603 8.37209C28.3545 8.05616 27.1698 7.81922 25.9851 7.66125C25.1953 7.50329 24.4054 7.42431 23.6156 7.26634C22.9048 7.26634 22.3519 7.10838 21.878 6.79245C21.4831 6.55551 21.0882 6.31856 20.6933 6.08161L20.5353 6.00263C20.1404 6.23958 19.8245 6.47652 19.4296 6.71347C19.7455 6.79245 20.1404 6.87143 20.4563 7.0294C20.9302 7.26634 21.4041 7.50329 21.878 7.74024C22.4309 7.97718 22.9838 8.21413 23.5366 8.45107C24.3265 8.767 25.1953 9.08293 25.9851 9.24089C26.8539 9.47784 27.6437 9.63581 28.5125 9.71479C29.2233 9.79377 29.9342 9.95173 30.724 10.0307C31.1189 10.1097 31.4348 10.2677 31.6718 10.4256C31.9087 10.5836 32.2247 10.7416 32.4616 10.8995C32.7775 11.0575 33.0935 11.1365 33.4094 11.2154C33.8043 11.2944 34.2782 11.3734 34.6731 11.4524C35.305 11.6104 35.7789 12.0053 36.0948 12.5581C36.2527 12.7951 36.3317 13.032 36.4107 13.269C36.5687 13.6639 36.4897 14.0588 36.3317 14.4537C36.0158 15.2435 35.5419 15.7964 34.8311 16.1913C34.5941 16.3493 34.3572 16.4283 34.1202 16.5862C33.8043 16.7442 33.4884 16.9021 33.1724 16.9811C32.3826 17.2181 31.5928 17.376 30.803 17.455C29.7762 17.534 28.7495 17.613 27.7227 17.534C26.8539 17.534 25.9851 17.376 25.1163 17.1391C23.3787 16.6652 21.799 15.9544 20.2194 15.0856C19.5086 14.6907 18.8767 14.1378 18.3238 13.5849C17.692 12.953 17.0601 12.3212 16.5072 11.6104C16.1123 11.0575 15.7174 10.4256 15.4805 9.79377C15.4015 9.71479 15.4015 9.55682 15.4015 9.47784C6.08161 17.2181 0 29.0654 0 42.2554C0 65.634 18.9557 84.5107 42.2554 84.5107C55.8403 84.5107 67.9245 78.1132 75.6648 68.1615C75.4278 68.2405 75.1909 68.3194 74.875 68.3194C74.3221 68.3984 73.8482 68.4774 73.2953 68.4774C72.4265 68.4774 71.7157 68.1615 71.0838 67.6086C70.7679 67.2927 70.373 66.9767 70.057 66.6608C69.7411 66.3449 69.5042 65.871 69.2672 65.4761C68.9513 64.6863 68.7144 63.8964 68.5564 63.0276C68.3194 62.0009 68.2405 60.8951 68.1615 59.7894C68.0825 59.0785 68.0825 58.3677 68.0825 57.6569C68.0825 56.867 68.1615 56.1562 68.2405 55.3664C68.3984 54.3396 68.5564 53.2339 68.8723 52.2071C69.1093 51.3383 69.3462 50.3905 69.6621 49.5217C69.9781 48.7319 70.373 48.1 71.0048 47.5472C71.3208 47.3102 71.7157 47.0733 72.1106 46.9943H72.1896C72.1106 47.2312 71.9526 47.4682 71.8736 47.7051C71.5577 48.337 71.3997 48.9688 71.2418 49.6797C71.0838 50.4695 70.9258 51.3383 70.9258 52.2071C70.8469 53.1549 70.8469 54.1817 70.9258 55.1294C71.0048 56.3142 71.2418 57.4989 71.4787 58.6836C71.6367 59.4735 71.7946 60.2633 71.9526 61.0531C72.0316 61.685 72.0316 62.2378 71.9526 62.7907C71.8736 63.2646 71.7947 63.6595 71.7157 64.1334C71.6367 64.7652 71.7157 65.3971 72.1106 65.871C72.1896 66.029 72.3475 66.1079 72.4265 66.2659C72.4265 66.3449 72.5055 66.3449 72.5845 66.3449C72.6635 66.4239 72.8214 66.4239 72.9004 66.3449C73.0584 66.2659 73.0584 66.1079 73.0584 66.029C72.9794 65.871 72.9794 65.634 72.9004 65.4761C72.7424 65.0022 72.6635 64.5283 72.7424 63.9754C72.8214 63.4226 72.8214 62.8697 72.9004 62.3958C72.9004 61.7639 72.9794 61.1321 72.9794 60.5792C72.9794 59.7104 72.9794 58.8416 72.9004 57.9728C72.8214 57.104 72.6635 56.2352 72.5055 55.4454C72.3475 54.7345 72.1896 54.0237 72.0316 53.3129C71.9526 52.9969 71.9526 52.602 72.0316 52.2861C72.1106 51.9702 72.1896 51.6542 72.1896 51.4173C72.1896 51.1014 72.1896 50.7064 72.1106 50.3905C72.0316 49.9956 71.9526 49.5217 71.9526 49.1268C71.8736 48.495 72.1106 47.9421 72.5055 47.3892C72.6635 47.1523 72.8214 46.9943 73.0584 46.8363C73.3743 46.5994 73.7692 46.5204 74.1641 46.5204C74.9539 46.5204 75.6648 46.8363 76.2966 47.3102C76.5336 47.4682 76.6915 47.7051 76.9285 47.8631C77.1654 48.1 77.4024 48.337 77.6393 48.5739C78.1132 49.2058 78.5081 49.9166 78.903 50.6275C79.3769 51.5752 79.7718 52.444 80.0878 53.4708C80.4037 54.3396 80.4827 55.1294 80.6406 55.9982C80.7986 57.6569 80.7196 59.2365 80.4827 60.8951C81.6674 58.4467 82.6942 55.8403 83.405 53.0759C83.0891 52.839 82.6942 52.523 82.3782 52.2071C81.5884 51.6542 81.0355 51.0224 80.5617 50.3115ZM50.4695 18.5608C50.9434 17.8499 51.5753 17.376 52.3651 17.1391C52.839 16.9811 53.2339 16.9021 53.7078 16.8232C54.1817 16.7442 54.6556 16.7442 55.1294 16.8232C55.9982 16.9811 56.7881 17.2181 57.5779 17.534C58.6047 17.9289 59.5524 18.4028 60.5002 18.8767C61.1321 19.1926 61.7639 19.5875 62.3958 19.9035C63.0276 20.2984 63.6595 20.7723 64.2124 21.2462C65.0022 21.957 65.792 22.6678 66.5818 23.4577C67.2137 24.0895 67.8456 24.8004 68.3984 25.5112C68.8723 26.143 69.2672 26.9329 69.3462 27.7227C69.3462 28.1176 69.3462 28.5125 69.2672 28.9074V28.9864C69.1093 28.7495 69.0303 28.5125 68.8723 28.3545C68.4774 27.8017 68.0035 27.2488 67.5296 26.7749C66.8978 26.143 66.2659 25.6692 65.634 25.1163C64.8442 24.5634 63.9754 24.0105 63.1066 23.5366C62.0799 22.9838 60.9741 22.5099 59.8684 22.115C59.1575 21.799 58.3677 21.5621 57.6569 21.2462C57.104 21.0092 56.6301 20.6933 56.1562 20.2984C55.8403 19.9824 55.5244 19.6665 55.1294 19.3506C54.6556 18.9557 54.1027 18.7187 53.4708 18.7187C53.3129 18.7187 53.1549 18.7187 52.9969 18.7977C52.9179 18.7977 52.9179 18.7977 52.839 18.8767C52.76 18.9557 52.602 19.0347 52.602 19.1136C52.602 19.2716 52.681 19.3506 52.839 19.4296C52.9969 19.5086 53.2339 19.5875 53.3918 19.5875C53.8657 19.6665 54.3396 19.9035 54.7345 20.2194C55.1294 20.5353 55.6033 20.8512 55.9982 21.2462C56.4721 21.6411 57.025 21.957 57.4989 22.2729C58.2097 22.7468 58.9996 23.2207 59.7894 23.5366C60.5792 23.9315 61.369 24.2475 62.1588 24.5634C62.8697 24.8004 63.5015 25.1163 64.2124 25.3532C64.5283 25.5112 64.8442 25.6692 65.0812 25.9061C65.3181 26.143 65.5551 26.301 65.792 26.538C66.029 26.7749 66.3449 26.8539 66.6608 27.0118C67.0557 27.1698 67.4506 27.3278 67.8456 27.5647C68.3984 27.8806 68.7933 28.3545 69.0303 28.9864C69.1093 29.2233 69.1882 29.4603 69.1882 29.6972C69.2672 30.0921 69.1093 30.4871 68.8723 30.882C68.3984 31.5928 67.7666 31.9877 67.0557 32.2247C66.8188 32.3036 66.5029 32.3826 66.2659 32.4616C65.95 32.5406 65.634 32.6196 65.2391 32.6196C64.4493 32.6986 63.5805 32.6196 62.7907 32.5406C61.7639 32.4616 60.7372 32.3036 59.7894 31.9877C58.9206 31.7508 58.1308 31.4348 57.3409 31.0399C55.7613 30.2501 54.3396 29.2233 52.9969 28.0386C52.3651 27.4857 51.8912 26.8539 51.4173 26.222C50.9434 25.5112 50.4695 24.7214 50.0746 23.9315C49.7587 23.2997 49.6007 22.6678 49.4427 21.957C49.3638 21.1672 49.4427 20.4563 49.7587 19.8245C49.9166 19.5086 50.1536 19.0347 50.4695 18.5608ZM67.8456 51.1014C67.7666 51.3383 67.6876 51.6542 67.6086 51.8912C67.5296 52.2071 67.3717 52.523 67.2137 52.839C66.8188 53.5498 66.3449 54.2606 65.871 54.8925C65.2391 55.6823 64.5283 56.4721 63.8175 57.183C63.1856 57.8148 62.4748 58.2887 61.685 58.7626C60.1843 59.7104 58.5257 60.3423 56.8671 60.8161C56.0772 61.0531 55.2874 61.1321 54.4976 61.1321C53.6288 61.1321 52.681 61.1321 51.8122 61.0531C51.1014 60.9741 50.4695 60.8161 49.8377 60.5002C49.1268 60.1843 48.495 59.7894 48.179 59.0785C47.7051 58.0518 48.0211 57.262 47.9421 57.183C46.2045 57.8148 44.3089 58.2097 42.3344 58.2097C33.1724 58.2097 26.459 51.1014 26.459 42.3344C26.459 35.8578 29.6183 31.1979 34.91 28.1966C34.2782 27.6437 33.2514 26.0641 32.8565 25.1163C32.6196 24.7214 32.7775 24.1685 32.6986 23.6946C32.6986 23.2207 32.7775 22.7468 32.9355 22.2729C33.1724 21.4831 33.5674 20.6933 33.9623 19.9824C34.5151 19.0347 35.068 18.1659 35.7789 17.2971C36.1738 16.7442 36.6477 16.1913 37.1215 15.6384C37.5954 15.0856 38.1483 14.5327 38.7012 14.0588C39.491 13.348 40.3598 12.7161 41.2286 12.0842C42.0184 11.5314 42.7293 11.0575 43.5981 10.5836C44.3089 10.1887 45.0987 9.95173 45.9675 10.0307C46.3624 10.0307 46.7574 10.1097 47.1523 10.2677C47.1523 10.2677 47.2312 10.2677 47.2312 10.3466C46.9943 10.4256 46.7574 10.5046 46.5204 10.6626C45.8885 10.9785 45.3357 11.2944 44.7828 11.7683C44.072 12.2422 43.4401 12.8741 42.8872 13.4269C42.1764 14.1378 41.5445 14.8486 40.9917 15.7174C40.2808 16.6652 39.649 17.692 39.0961 18.7187C38.7012 19.4296 38.3063 20.1404 37.9114 20.7723C37.5954 21.3251 37.2005 21.7201 36.7266 22.115C36.4107 22.4309 36.0158 22.6678 35.6999 22.9838C35.226 23.3787 34.91 23.9315 34.8311 24.5634C34.8311 24.7214 34.8311 24.8793 34.8311 25.0373C34.8311 25.1163 34.8311 25.1163 34.8311 25.1953C34.8311 25.2742 34.91 25.4322 35.068 25.4322C35.226 25.4322 35.305 25.4322 35.3839 25.2742C35.4629 25.1163 35.5419 24.9583 35.6209 24.7214C35.7789 24.2475 36.0948 23.8526 36.4897 23.4577C36.8846 23.0627 37.2795 22.7468 37.6744 22.3519C38.0693 21.878 38.5432 21.4831 38.9381 21.0092C39.57 20.3774 40.0439 19.6665 40.5178 18.9557C40.9917 18.2448 41.4656 17.534 41.8605 16.7442C42.2554 16.1123 42.5713 15.4805 42.8872 14.8486C43.0452 14.5327 43.2821 14.2957 43.5981 14.0588C43.835 13.9008 44.072 13.6639 44.3089 13.5059C44.5459 13.269 44.7038 12.953 44.9408 12.7161C45.1777 12.3212 45.4147 12.0053 45.6516 11.6104C46.0465 11.0575 46.5994 10.8205 47.2312 10.6626C47.4682 10.5836 47.7051 10.5836 48.0211 10.5836C48.416 10.5836 48.8109 10.8205 49.1268 11.0575C49.7587 11.6104 50.0746 12.3212 50.2326 13.032C50.3115 13.269 50.3115 13.5849 50.3115 13.8219C50.3905 14.1378 50.3905 14.5327 50.3115 14.8486C50.2326 15.6384 50.0746 16.4283 49.9166 17.2181C49.6797 18.2448 49.3638 19.1926 48.9688 20.1404C48.6529 20.9302 48.179 21.7201 47.7051 22.4309C46.9943 23.4577 44.9408 25.5902 44.072 26.459C49.5217 27.3278 54.3396 30.4871 56.8671 35.147C57.7359 34.4362 59.1575 34.1992 59.7894 34.3572C60.5792 34.5151 61.369 34.7521 62.0009 35.305C62.3168 35.5419 62.5538 35.8578 62.7907 36.2527C62.7907 36.2527 62.7907 36.3317 62.8697 36.3317C62.6327 36.2527 62.3958 36.1738 62.1588 36.0948C61.448 35.9368 60.8162 35.8578 60.1053 35.8578C59.6314 35.8578 58.0518 36.9636 57.6569 37.0426C57.8148 37.3585 57.7359 37.8324 57.8938 38.1483C58.0518 38.0693 59.4735 36.7266 59.7104 36.7266C60.1053 36.5687 60.5002 36.4107 60.8951 36.2527C61.527 36.0948 62.1588 36.1738 62.7117 36.4897C62.9487 36.5687 63.1856 36.7266 63.3436 36.8846C63.6595 37.1215 63.8175 37.5165 63.8965 37.9114C64.0544 38.7012 63.8965 39.491 63.5805 40.2018C63.4226 40.4388 63.2646 40.6757 63.1856 40.9127C63.0276 41.2286 62.7907 41.4656 62.6327 41.7025C62.0799 42.3344 61.527 42.8872 60.8162 43.3611C60.5002 43.5981 59.8684 43.914 58.5257 43.993C58.4467 45.0197 58.0518 45.9675 57.8148 46.9153C58.2097 46.8363 60.1843 46.7573 60.5792 46.5994C61.448 46.4414 62.3958 46.2835 63.3436 46.2045C64.1334 46.1255 65.0022 46.2045 65.713 46.5994C66.1079 46.7573 66.4239 46.9943 66.6608 47.3102L66.7398 47.3892C66.5029 47.3892 66.2659 47.3892 65.95 47.3892C65.2391 47.3892 64.6073 47.4682 63.8965 47.6261C63.0276 47.7841 62.2378 48.1 61.448 48.416C60.5002 48.8109 59.6314 49.2058 58.7626 49.6797C58.5257 49.8376 56.6301 49.9956 56.3932 50.1536C55.8403 51.1803 54.8925 52.1281 54.1817 52.9969C54.4976 52.839 56.7091 52.681 56.946 52.4441C57.6569 51.9702 58.3677 51.4963 59.0785 51.0224C59.6314 50.5485 60.2633 50.1536 60.8162 49.6797C61.1321 49.4427 61.448 49.3638 61.7639 49.2848C62.0799 49.2058 62.3958 49.1268 62.6327 49.0478C62.9487 48.9688 63.2646 48.7319 63.5015 48.5739C63.8965 48.337 64.2124 48.1 64.6073 47.8631C65.1602 47.5472 65.792 47.4682 66.4239 47.6261C66.6608 47.7051 66.8978 47.7841 67.1347 47.8631C67.5296 48.0211 67.7666 48.337 67.9245 48.7319C68.0035 49.6007 68.0035 50.3905 67.8456 51.1014ZM75.6648 43.5191C75.0329 44.072 74.3221 44.4669 73.6112 44.7828C72.8214 45.1777 71.9526 45.4936 71.0838 45.7306C70.452 45.8885 69.7411 46.0465 69.0303 46.0465C68.2405 46.0465 67.6086 45.8096 66.9768 45.4147C66.5029 45.0987 66.1079 44.7828 65.713 44.4669C65.0812 43.914 64.6863 43.2032 64.6073 42.4133C64.5283 41.9394 64.5283 41.4656 64.4493 40.9917C64.4493 40.5178 64.5283 40.0439 64.6863 39.57C64.9232 38.7802 65.3181 37.9903 65.713 37.2795C66.2659 36.3317 66.8188 35.4629 67.5296 34.5941C67.9245 34.0412 68.3984 33.4884 68.8723 32.9355C69.3462 32.3826 69.8991 31.8298 70.452 31.3559C71.2418 30.645 72.1106 30.0132 72.9794 29.3813C73.6902 28.8284 74.48 28.3545 75.3488 27.8806C76.0597 27.4857 76.8495 27.2488 77.7183 27.3278C78.1132 27.3278 78.5081 27.4068 78.903 27.5647C78.903 27.5647 78.982 27.5647 78.982 27.6437C78.7451 27.7227 78.5081 27.8017 78.2712 27.9596C77.6393 28.2756 77.0864 28.5915 76.5336 29.0654C75.8227 29.5393 75.1909 30.1711 74.638 30.724C73.9272 31.4348 73.2953 32.1457 72.7424 33.0145C72.0316 33.9623 71.3997 34.989 70.8469 36.0158C70.452 36.7266 70.057 37.4375 69.6621 38.0693C69.3462 38.6222 68.9513 39.0171 68.4774 39.412C68.0825 39.728 67.7666 39.9649 67.3717 40.2808C66.8978 40.6757 66.5818 41.2286 66.5029 41.8605C66.5029 42.0184 66.5029 42.1764 66.5029 42.3344C66.5029 42.4133 66.5029 42.4133 66.5029 42.4923C66.5818 42.5713 66.5818 42.7293 66.7398 42.7293C66.8978 42.7293 66.9767 42.7293 67.0557 42.5713C67.1347 42.4133 67.2137 42.2554 67.2927 42.0184C67.4506 41.5445 67.7666 41.1496 68.1615 40.7547C68.5564 40.3598 68.9513 40.0439 69.3462 39.649C69.7411 39.1751 70.215 38.7802 70.6099 38.3063C71.2418 37.6744 71.7157 36.9636 72.1896 36.2527C72.6635 35.5419 73.1373 34.8311 73.5323 34.0412C73.9272 33.4094 74.2431 32.7775 74.638 32.1457C74.796 31.8298 75.0329 31.5928 75.3488 31.3559C75.5858 31.1979 75.8227 30.9609 76.0597 30.803C76.2966 30.566 76.4546 30.2501 76.6915 30.0132C76.9285 29.6183 77.1654 29.3023 77.4024 28.9074C77.7973 28.3545 78.3502 28.1176 78.982 27.9596C79.219 27.8806 79.4559 27.8806 79.7718 27.8806C80.1667 27.8806 80.5617 28.1176 80.8776 28.3545C81.5094 28.9074 81.8254 29.6183 81.9833 30.3291C82.0623 30.566 82.0623 30.882 82.0623 31.1189C82.1413 31.4348 82.1413 31.8298 82.0623 32.1457C81.9833 32.9355 81.8254 33.7253 81.6674 34.5151C81.4305 35.5419 81.1145 36.4897 80.7196 37.4375C80.4037 38.2273 79.9298 39.0171 79.4559 39.728C78.1922 41.1496 77.0075 42.4133 75.6648 43.5191ZM61.448 4.58096C60.8162 5.05485 60.2633 5.52874 59.6314 6.00263C58.9996 6.55551 58.3677 7.0294 57.8148 7.58227C57.3409 7.97718 56.867 8.21413 56.2352 8.45107C55.8403 8.60904 55.3664 8.68802 54.9715 8.92497C54.4186 9.16191 53.8657 9.55682 53.6288 10.1097C53.5498 10.2677 53.4708 10.4256 53.4708 10.5836C53.4708 10.6626 53.4708 10.6626 53.4708 10.7416C53.4708 10.8995 53.4708 10.9785 53.6288 11.0575C53.7868 11.1365 53.8657 11.1365 54.0237 11.0575C54.1817 10.8995 54.3396 10.8205 54.4186 10.6626C54.7345 10.2677 55.1294 10.0307 55.6033 9.79377C56.0772 9.55682 56.6301 9.39886 57.104 9.16191C57.6569 8.92497 58.2097 8.60904 58.7626 8.37209C59.5524 7.97718 60.2633 7.50329 60.9741 7.0294C61.606 6.55551 62.2378 6.08161 62.8697 5.52874C62.3958 5.05485 61.9219 4.8179 61.448 4.58096Z" fill="#BC412B"/>
<path d="M153.146 43.7561C153.067 43.4402 153.067 43.2822 153.383 43.2032C155.279 42.9663 156.621 41.8605 158.438 41.6236C160.175 41.3866 161.518 42.2554 162.545 43.993C165.072 48.3371 160.175 56.3142 152.83 58.7627C152.04 58.9996 151.566 58.9206 151.093 58.6047C150.777 58.3678 150.303 57.9729 149.908 57.42C149.355 56.7091 149.276 56.3142 149.829 54.4977C150.698 51.8912 152.909 47.6262 154.805 44.8618C153.857 44.8618 153.304 44.151 153.146 43.7561ZM155.673 47.4682C154.331 49.9167 152.119 53.5499 151.329 56.0773C150.935 57.262 151.172 57.5779 151.961 57.341C159.465 54.4976 162.861 46.6784 161.281 44.072C160.333 42.5714 158.359 43.993 156.384 44.6249C156.463 45.3357 156.305 46.2835 155.673 47.4682Z" fill="#BC412B"/>
<path d="M179.921 59.0787C178.104 59.0787 177.473 57.9729 177.709 56.3933C176.762 57.657 175.34 59.0787 173.76 58.9997C171.786 58.8417 171.786 56.8672 172.339 55.0506C172.576 54.3398 172.892 53.5499 173.365 52.6811C172.576 53.0761 171.786 53.234 170.917 53.155C170.285 55.4455 168.627 58.1309 166.652 58.8417C165.625 59.1577 164.283 59.0787 163.177 57.657C161.992 56.0774 162.387 53.7079 163.572 51.4964C164.598 49.6008 166.336 48.1002 167.916 47.9422C168.706 47.8632 169.179 48.1002 169.811 48.89C170.443 49.6798 171.233 49.8378 171.075 51.8913C171.075 52.0493 171.075 52.2073 170.996 52.4442C172.576 52.4442 174.076 51.1015 175.024 49.6008C175.261 49.127 175.735 48.5741 176.051 48.1002C176.288 47.7843 176.525 47.8632 176.762 48.1002C177.394 48.969 177.236 50.1537 176.209 51.7334C175.261 53.313 174.629 54.4187 174.076 55.7614C173.523 57.1041 173.602 58.0519 174.234 58.1309C175.34 58.2099 176.841 56.3143 178.262 53.9449C179.921 51.1805 180.79 49.2849 181.58 48.1002C181.817 47.7053 182.053 47.7053 182.29 47.9422C182.685 48.4161 182.922 49.6008 182.29 50.9435C181.659 52.2073 180.316 54.1818 179.684 55.6035C178.973 57.1831 179.052 58.2889 180.079 58.2889C181.185 58.2099 182.606 56.3933 183.633 54.4977C183.791 54.2608 183.949 54.2608 184.107 54.4977C184.265 54.7347 184.265 55.4455 183.87 56.1564C183.159 57.657 181.501 59.0787 179.921 59.0787ZM167.363 49.9168C166.652 50.5486 165.862 51.4174 165.23 52.5232C164.046 54.5767 163.73 57.0252 164.44 57.657C165.151 58.2889 166.81 57.3411 168.232 54.8137C168.705 54.0238 168.942 53.313 169.179 52.6022C168.232 52.1283 167.363 51.0225 167.363 49.9168ZM168.706 49.9958C168.627 50.7066 168.863 51.4174 169.337 51.8913C169.574 51.1015 169.574 50.3907 169.495 49.9168C169.416 49.048 168.784 49.2059 168.706 49.9958Z" fill="#BC412B"/>
<path d="M189.32 59.7104C187.819 63.3436 185.845 67.6876 183.633 68.6354C183.08 68.8723 182.527 68.7933 182.053 68.0825C181.501 67.2927 180.948 66.2659 181.501 64.6863C182.29 62.2378 184.66 60.5792 187.345 59.5525C187.582 58.9206 187.898 58.2887 188.135 57.6569C187.345 58.4467 186.397 58.9996 185.371 58.9996C182.843 58.9996 182.369 55.6034 184.581 52.2861C186.713 49.1268 188.925 47.8631 190.347 47.8631C191.452 47.8631 192.005 48.7319 191.926 49.6797C192.242 49.1268 192.558 48.6529 192.795 48.179C193.032 47.7841 193.269 47.7841 193.506 48.0211C193.901 48.495 194.138 49.6797 193.427 51.0224C192.637 52.681 190.899 55.9983 189.715 58.6047C192.005 57.4199 193.506 55.9193 194.612 54.4976C194.77 54.2607 195.007 54.2607 195.086 54.5766C195.165 54.8135 195.007 55.4454 194.533 56.1562C193.585 57.8148 191.61 58.9206 189.32 59.7104ZM182.606 67.0557C183.001 67.6086 185.134 64.7653 186.871 60.5792C183.396 62.6327 182.132 66.4239 182.606 67.0557ZM190.742 49.2058C189.873 49.1268 187.898 50.8644 186.397 53.3129C184.897 55.6823 184.581 58.0518 185.687 58.1308C186.792 58.1308 188.135 56.4722 189.557 54.0237C191.294 51.0224 191.61 49.2848 190.742 49.2058Z" fill="#BC412B"/>
<path d="M201.088 58.9996C198.798 58.9996 198.245 57.341 199.035 54.9715C199.903 52.2861 202.352 49.4428 201.878 49.2058C201.483 48.9689 198.482 50.8645 196.902 53.4709C195.954 55.0505 194.928 57.0251 194.217 58.6837C194.138 58.9206 193.901 58.9996 193.743 58.7627C193.269 58.2888 193.032 57.499 193.664 55.8403C194.612 53.076 200.298 43.5191 202.51 40.7548C202.747 40.4388 203.063 40.4388 203.142 40.7548C203.537 41.5446 203.379 42.8873 202.352 44.6249C201.72 45.7306 200.219 47.9421 199.035 49.7587C200.14 48.653 201.562 47.7842 202.352 47.8631C203.3 47.9421 204.168 49.3638 203.458 50.7065C202.826 51.8912 201.562 53.9448 200.93 55.3664C200.219 56.9461 200.377 58.2098 201.404 58.2098C202.51 58.1308 204.01 56.1563 204.879 54.4187C204.958 54.1817 205.274 54.1817 205.353 54.4187C205.511 54.7346 205.511 55.2875 205.116 56.0773C204.405 57.6569 202.747 58.9996 201.088 58.9996Z" fill="#BC412B"/>
<path d="M212.935 47.8632C213.804 48.0211 214.673 49.3638 214.041 50.7855C213.488 51.9702 212.146 54.0238 211.514 55.4454C210.803 57.0251 210.961 58.2888 211.988 58.2888C213.093 58.2098 214.436 56.3932 215.463 54.4976C215.621 54.2607 215.779 54.2607 215.937 54.4976C216.095 54.8136 216.095 55.4454 215.7 56.2352C214.989 57.7359 213.251 59.1576 211.672 59.1576C209.381 59.1576 208.828 57.499 209.618 55.0505C210.487 52.3651 212.935 49.4428 212.462 49.2848C212.225 49.2059 210.566 49.9167 208.828 51.8912C207.249 53.6288 205.985 56.2352 204.8 58.8417C204.721 59.0786 204.563 59.2366 204.247 58.9206C203.695 58.3678 203.537 57.499 204.01 56.0773C204.563 54.3397 206.696 50.5485 208.354 48.0211C208.512 47.7052 208.749 47.7842 208.907 48.0211C209.302 48.732 209.302 49.6008 208.986 50.6275C210.171 49.2058 211.988 47.7052 212.935 47.8632Z" fill="#BC412B"/>
<path d="M216.411 58.9205C214.436 58.7625 214.436 56.788 214.989 54.9714C215.621 53.1548 216.964 50.4694 218.78 48.021C219.017 47.7051 219.254 47.784 219.491 48.021C220.123 48.8898 219.965 50.1535 218.938 51.7331C217.911 53.3128 217.358 54.4185 216.806 55.7612C216.253 57.1039 216.332 58.0517 216.964 58.1307C218.069 58.2097 219.57 56.3141 220.992 53.9446C222.729 51.1803 223.519 49.2847 224.388 48.1C224.625 47.7051 224.862 47.6261 225.099 47.942C225.494 48.4159 225.731 49.6006 225.099 51.0223C224.467 52.286 223.124 54.3396 222.492 55.6822C221.781 57.2619 221.86 58.3676 222.887 58.3676C224.072 58.2887 225.415 56.4721 226.52 54.5765C226.678 54.3396 226.915 54.3396 226.994 54.5765C227.073 54.8134 227.152 55.5243 226.757 56.3141C225.968 57.8148 224.309 59.2364 222.65 59.2364C220.834 59.2364 220.123 58.1307 220.36 56.551C219.412 57.6568 217.911 59.0785 216.411 58.9205Z" fill="#BC412B"/>
<path d="M227.626 47.2313C227.389 46.8363 227.547 46.6784 227.942 46.6784C228.732 46.6784 229.443 46.6784 230.233 46.5994C231.101 45.0987 231.812 43.835 232.286 43.2032C232.523 42.8083 232.839 42.8872 232.918 43.2032C233.234 43.993 233.234 44.8618 232.523 46.2835C233.55 46.2835 234.024 46.7574 234.182 47.0733C234.34 47.3892 234.261 47.6262 233.866 47.6262C233.234 47.5472 232.444 47.6262 231.733 47.7051C230.628 49.5217 229.127 52.2071 228.1 54.4976C227.231 56.4721 227.468 58.2098 228.653 58.2098C229.917 58.2887 231.417 56.3142 232.444 54.2607C232.602 53.9447 232.918 53.8657 232.997 54.2607C233.155 54.7345 232.997 55.2084 232.76 55.8403C232.365 56.6301 230.628 59.0786 228.416 58.9206C226.599 58.8416 225.178 56.8671 226.441 53.7078C226.994 52.3651 228.179 50.0746 229.364 47.8631C228.495 47.9421 227.863 47.5472 227.626 47.2313Z" fill="#BC412B"/>
<path d="M236.077 49.4427C236.235 48.3369 236.472 47.863 237.025 47.3102C237.657 46.7573 238.289 46.6783 238.526 46.9152C238.763 47.1522 238.684 47.4681 238.289 48.1C238.21 48.2579 238.131 48.4159 237.973 48.6529C237.815 51.1803 238.289 53.3128 238.21 55.2084C238.131 56.3141 237.973 57.4199 236.946 58.0517C238.763 57.3409 239.947 55.7612 240.579 54.2606C240.737 53.9446 240.974 54.0236 241.132 54.2606C241.211 54.4975 241.211 55.2084 240.737 56.0772C239.71 57.9727 237.815 58.9995 235.919 59.0785C234.34 59.1575 232.839 58.6836 231.891 57.0249C231.259 55.7612 231.338 54.0236 232.286 53.2338C232.602 52.9969 232.839 53.0758 232.839 53.4708C232.839 53.7077 232.839 53.9446 232.918 54.1026C234.024 52.602 235.287 50.7854 236.077 49.4427ZM233.155 55.6033C233.55 57.1829 234.34 58.2887 235.287 58.0517C236.551 57.6568 236.156 53.3918 235.998 51.1803C235.208 52.602 234.182 54.1026 233.155 55.6033Z" fill="#BC412B"/>
<path d="M254.954 54.8925C253.611 55.0504 252.821 54.6555 252.426 53.7867C252.347 53.5498 252.347 53.3128 252.663 53.3128C254.401 53.3128 256.612 52.523 258.271 52.444C259.614 52.365 260.325 52.9179 260.72 53.7867C260.799 54.1026 260.72 54.2606 260.483 54.2606C259.614 54.1816 258.587 54.2606 257.718 54.4186C257.876 55.2084 257.639 56.2351 256.77 57.3409C255.191 59.3944 251.716 60.8951 249.109 58.6836C246.187 56.0772 248.556 51.2593 252.821 49.9956C251.953 49.6796 251.242 49.0478 251.242 47.8631C251.084 45.1777 254.164 42.8082 255.981 42.2553C257.402 41.7814 258.587 41.6235 259.851 42.6502C261.035 43.677 261.114 44.5458 260.483 45.8885C260.088 46.6783 259.614 47.8631 259.377 48.5739C259.298 48.8108 259.14 48.8898 258.824 48.7319C258.192 48.4159 257.718 47.4681 258.192 46.1254C258.745 44.6248 259.535 43.835 259.061 43.3611C258.271 42.5713 252.979 45.5726 253.216 48.3369C253.295 49.4427 254.164 49.6007 255.191 49.6007C256.533 49.6007 257.086 50.3115 257.244 50.7854C257.323 51.0223 257.244 51.1803 256.928 51.1803C252.9 51.4962 249.504 54.0236 249.425 56.6301C249.425 57.7358 250.057 58.6046 251.242 58.6836C252.584 58.7626 254.954 57.5778 256.218 54.8925C255.744 54.8135 255.27 54.8925 254.954 54.8925Z" fill="#BC412B"/>
<path d="M278.175 52.997C278.885 54.8136 277.069 56.8672 275.963 57.736C273.989 59.1576 271.698 59.0787 270.276 58.2888C269.013 57.657 267.986 55.9194 267.907 53.7079C267.828 47.9422 272.646 42.9663 275.726 41.7816C277.227 41.2287 278.57 41.0708 279.438 41.8606C280.07 42.4134 280.702 43.2033 280.86 43.8351C281.097 44.6249 281.018 45.4148 280.623 46.2046C280.228 47.0734 279.833 48.1002 279.517 48.89C279.438 49.1269 279.28 49.2849 278.885 49.0479C278.254 48.653 277.859 47.7842 278.254 46.4415C278.727 45.0199 279.675 43.4402 279.043 42.8084C278.254 42.0185 274.147 44.23 271.698 48.2581C269.329 52.2862 269.566 56.3143 270.908 57.42C272.646 58.8417 275.568 57.0251 277.622 52.9181C277.78 52.6811 278.017 52.6811 278.175 52.997Z" fill="#BC412B"/>
<path d="M289.311 48.0211C289.548 47.6262 289.785 47.6262 289.943 47.8631C290.338 48.337 290.575 49.5217 289.943 50.8644C289.311 52.1282 287.968 54.1817 287.336 55.6034C286.626 57.104 286.626 58.2888 287.573 58.2888C288.679 58.2098 290.18 56.3932 291.128 54.4976C291.286 54.2607 291.444 54.2607 291.601 54.4976C291.68 54.7346 291.68 55.4454 291.365 56.1562C290.654 57.6569 288.916 59.1576 287.415 59.0786C285.915 58.9996 285.204 58.1308 285.204 56.8671C284.335 57.9728 283.071 58.9996 281.808 58.9996C279.28 58.9996 278.727 55.5244 281.018 52.2071C283.229 48.9689 285.362 47.7841 286.784 47.7841C287.968 47.7841 288.521 48.6529 288.442 49.7587C288.679 49.0479 289.074 48.495 289.311 48.0211ZM287.178 49.1268C286.31 49.0479 284.335 50.7855 282.834 53.2339C281.413 55.6034 281.018 57.9728 282.124 58.0518C283.229 58.0518 284.651 56.3142 286.073 53.9447C287.731 50.9434 287.968 49.2058 287.178 49.1268Z" fill="#BC412B"/>
<path d="M294.919 56.7092C294.919 57.0252 294.919 57.3411 294.84 57.657C295.867 56.9462 296.972 55.6035 297.683 54.1818C297.841 53.8659 298.157 53.8659 298.236 54.1818C298.394 54.5767 298.236 55.2086 297.999 55.8404C297.762 56.4723 296.34 58.1309 294.682 58.6838C294.208 61.4482 293.023 64.4495 291.759 66.1081C290.812 67.2928 290.18 67.3718 289.311 66.661C288.6 66.1081 287.81 65.0023 288.126 62.7119C288.916 56.6302 295.156 46.1256 298.236 41.6237C298.473 41.3077 298.789 41.3077 298.947 41.6237C299.263 42.5714 299.184 43.7562 297.999 45.7307C296.893 47.6263 294.998 50.7066 293.497 53.55C294.524 53.8659 294.998 54.8926 294.919 56.7092ZM289.627 65.6342C290.259 66.424 292.312 62.6329 293.181 58.9207C292.391 58.8417 291.838 58.4468 291.523 57.815C290.022 61.4481 289.074 64.8444 289.627 65.6342ZM293.655 56.1564C293.655 55.1296 293.418 54.2608 293.181 54.3398C292.944 54.4188 292.628 55.9194 292.628 56.5513C292.628 57.4201 292.865 57.9729 293.339 58.1309C293.497 57.4201 293.576 56.7882 293.655 56.1564Z" fill="#BC412B"/>
<path d="M300.606 58.2098C302.896 58.2888 304.871 56.1563 306.055 54.3397C306.213 54.1027 306.45 54.1027 306.529 54.3397C306.608 54.5766 306.529 55.2875 306.055 55.9983C304.871 57.6569 302.817 58.9206 300.685 58.9206C297.209 58.9996 296.025 55.5244 297.762 52.0492C299.5 48.574 302.343 47.0733 303.686 47.8631C304.397 48.258 304.871 48.653 305.265 49.2848C305.739 49.9167 305.502 51.5753 304.397 52.997C303.054 54.6556 301.237 55.3664 299.342 53.7868C298.552 56.3932 299.184 58.1308 300.606 58.2098ZM302.896 51.9702C303.765 50.7855 304.397 49.3638 304.002 49.1269C303.449 48.653 301.158 50.3116 299.895 52.918C299.816 53.076 299.737 53.2339 299.658 53.3919C301 54.1817 302.106 52.997 302.896 51.9702Z" fill="#BC412B"/>
<path d="M109.548 22.0362C108.916 19.3508 106.31 18.403 104.177 18.403C100.939 18.403 98.4116 20.9305 98.4116 24.4057C98.4116 27.8809 100.939 30.4873 104.177 30.4873C106.231 30.4873 108.442 29.5395 109.39 27.0911H103.229V24.7216H112.154C111.996 26.1433 111.917 27.0121 111.681 27.5649C110.575 30.7242 107.1 32.7778 104.098 32.7778C99.4383 32.7778 95.9631 29.2236 95.9631 24.4057C95.9631 19.5088 99.5173 15.9546 104.098 15.9546C107.258 15.9546 111.128 17.6132 111.996 22.0362H109.548Z" fill="#BC412B"/>
<path d="M123.133 18.4029C124.634 16.8233 126.766 15.8755 129.136 15.8755C131.505 15.8755 133.638 16.8233 135.138 18.4029C136.639 19.9826 137.587 22.0361 137.587 24.4055C137.587 26.775 136.639 28.9075 135.138 30.4082C133.559 31.9878 131.505 32.9356 129.136 32.9356C126.845 32.9356 124.634 31.9878 123.133 30.4082C121.632 28.8285 120.685 26.775 120.685 24.4055C120.685 22.0361 121.711 19.9036 123.133 18.4029ZM133.48 20.0615C132.374 18.9558 130.794 18.2449 129.215 18.2449C127.556 18.2449 126.055 18.9558 124.95 20.0615C123.844 21.1673 123.133 22.6679 123.133 24.3266C123.133 25.9852 123.844 27.5648 124.95 28.5916C126.055 29.6973 127.556 30.4082 129.215 30.4082C130.873 30.4082 132.374 29.6973 133.48 28.5916C134.585 27.4858 135.217 25.9852 135.217 24.3266C135.217 22.6679 134.506 21.1673 133.48 20.0615Z" fill="#BC412B"/>
<path d="M148.723 18.4029C150.224 16.8233 152.356 15.8755 154.726 15.8755C157.095 15.8755 159.228 16.8233 160.728 18.4029C162.229 19.9826 163.177 22.0361 163.177 24.4055C163.177 26.775 162.229 28.9075 160.728 30.4082C159.149 31.9878 157.095 32.9356 154.726 32.9356C152.435 32.9356 150.224 31.9878 148.723 30.4082C147.222 28.8285 146.275 26.775 146.275 24.4055C146.275 22.0361 147.222 19.9036 148.723 18.4029ZM158.991 20.0615C157.885 18.9558 156.305 18.2449 154.726 18.2449C153.067 18.2449 151.566 18.9558 150.461 20.0615C149.355 21.1673 148.644 22.6679 148.644 24.3266C148.644 25.9852 149.355 27.5648 150.461 28.5916C151.566 29.6973 153.067 30.4082 154.726 30.4082C156.384 30.4082 157.885 29.6973 158.991 28.5916C160.097 27.4858 160.728 25.9852 160.728 24.3266C160.728 22.6679 160.097 21.1673 158.991 20.0615Z" fill="#BC412B"/>
<path d="M178.183 16.1125C183.633 16.1125 186.319 20.2986 186.319 24.4057C186.319 28.5127 183.554 32.6988 178.183 32.6988H172.181V16.1125H178.183ZM178.183 30.2503C182.054 30.2503 183.949 27.328 183.949 24.3267C183.949 21.4043 181.975 18.403 178.183 18.403H174.629V30.1713H178.183V30.2503Z" fill="#BC412B"/>
<path d="M213.172 18.4819C214.594 16.9812 216.648 16.0334 218.938 16.0334C222.729 16.0334 225.731 18.4029 226.678 22.194H224.309C223.44 19.6666 221.387 18.4029 218.938 18.4029C217.358 18.4029 215.937 19.1137 214.831 20.2195C213.804 21.3252 213.093 22.7469 213.093 24.4845C213.093 26.1431 213.725 27.6438 214.831 28.7496C215.858 29.8553 217.358 30.5661 218.938 30.5661C221.466 30.5661 223.598 29.1445 224.467 26.617H226.836C225.889 30.4082 222.808 32.9356 218.938 32.9356C216.648 32.9356 214.673 31.9878 213.172 30.4872C211.751 28.9865 210.803 26.854 210.803 24.5635C210.724 22.0361 211.751 19.9825 213.172 18.4819Z" fill="#BC412B"/>
<path d="M237.499 18.4029C239 16.8233 241.132 15.8755 243.501 15.8755C245.871 15.8755 248.003 16.8233 249.504 18.4029C251.005 19.9826 251.953 22.0361 251.953 24.4055C251.953 26.775 251.005 28.9075 249.504 30.4082C247.924 31.9878 245.871 32.9356 243.501 32.9356C241.211 32.9356 239 31.9878 237.499 30.4082C235.998 28.8285 235.05 26.775 235.05 24.4055C235.05 22.0361 235.998 19.9036 237.499 18.4029ZM247.767 20.0615C246.661 18.9558 245.081 18.2449 243.501 18.2449C241.843 18.2449 240.342 18.9558 239.236 20.0615C238.131 21.1673 237.42 22.6679 237.42 24.3266C237.42 25.9852 238.131 27.5648 239.236 28.5916C240.342 29.6973 241.843 30.4082 243.501 30.4082C245.16 30.4082 246.661 29.6973 247.767 28.5916C248.872 27.4858 249.504 25.9852 249.504 24.3266C249.583 22.6679 248.872 21.1673 247.767 20.0615Z" fill="#BC412B"/>
<path d="M263.484 32.6987H261.115V16.0334H263.089L268.539 24.0896L273.989 16.0334H275.884V32.6987H273.515V21.0093L269.171 27.4858H267.828L263.484 21.0093V32.6987Z" fill="#BC412B"/>
<path d="M291.365 16.0334C294.919 16.0334 296.735 18.7978 296.735 21.5622C296.735 24.3266 294.919 27.0909 291.365 27.0909H287.731V32.6197H285.283V16.0334H291.365ZM291.365 24.8005C293.418 24.8005 294.366 23.2208 294.366 21.6412C294.366 20.0615 293.339 18.4819 291.365 18.4819H287.731V24.8005H291.365Z" fill="#BC412B"/>
<path d="M313.006 27.8018H307.082C306.45 29.3024 305.581 31.356 305.107 32.6987H302.501L309.215 15.8755H310.952L317.666 32.6987H315.138L313.006 27.8018ZM307.951 25.5113H312.058L310.004 19.6666L307.951 25.5113Z" fill="#BC412B"/>
<path d="M325.327 32.6987V16.0334H327.144L335.279 27.7228V16.0334H337.648V32.6987H335.753L327.775 21.0883V32.6987H325.327Z" fill="#BC412B"/>
<path d="M348.153 16.1124L352.655 23.3788L357.157 16.1124H360L353.839 25.9062V32.6987H351.47V25.9062L345.309 16.0334H348.153V16.1124Z" fill="#BC412B"/>
<path d="M96.2791 50.3118H144.063" stroke="#BC412B" stroke-width="1.4166" stroke-miterlimit="10"/>
<path d="M312.058 50.3118H359.842" stroke="#BC412B" stroke-width="1.4166" stroke-miterlimit="10"/>
</svg>
